<svg width="800" height="560" viewBox="0 0 800 560" fill="none" xmlns="http://www.w3.org/2000/svg">
  <rect width="800" height="560" rx="40" fill="#0C0C0C"/>
  <circle cx="126" cy="96" r="90" fill="#F3B562" fill-opacity="0.12"/>
  <circle cx="686" cy="460" r="120" fill="#C78A2C" fill-opacity="0.1"/>
  <path d="M132 274C132 182.321 206.321 108 298 108H502C593.679 108 668 182.321 668 274V274H132V274Z" fill="#F0AF55"/>
  <rect x="142" y="274" width="516" height="26" rx="13" fill="#5CAC3F"/>
  <path d="M152 294H648C648 325.48 622.48 351 591 351H209C177.52 351 152 325.48 152 294V294Z" fill="#F1CD63"/>
  <rect x="134" y="334" width="532" height="74" rx="37" fill="#5A3117"/>
  <path d="M132 390H668V406C668 463.99 620.99 511 563 511H237C179.01 511 132 463.99 132 406V390Z" fill="#D48F32"/>
  <rect x="228" y="204" width="26" height="12" rx="6" fill="#FFF0D0"/>
  <rect x="318" y="184" width="20" height="10" rx="5" fill="#FFF0D0"/>
  <rect x="386" y="214" width="24" height="10" rx="5" fill="#FFF0D0"/>
  <rect x="484" y="190" width="20" height="10" rx="5" fill="#FFF0D0"/>
  <rect x="548" y="220" width="20" height="10" rx="5" fill="#FFF0D0"/>
  <text x="400" y="84" fill="#F6EBDD" font-family="Arial, sans-serif" font-size="36" font-weight="700" text-anchor="middle" letter-spacing="6">ONIX SIGNATURE BURGER</text>
</svg>