<svg width="800" height="560" viewBox="0 0 800 560" fill="none" xmlns="http://www.w3.org/2000/svg">
  <rect width="800" height="560" rx="40" fill="#0C0C0C"/>
  <circle cx="144" cy="130" r="100" fill="#F3B562" fill-opacity="0.08"/>
  <path d="M244 130H556L606 428C610.725 456.118 588.924 482 560.412 482H239.588C211.076 482 189.275 456.118 194 428L244 130Z" fill="#9D201D"/>
  <rect x="280" y="104" width="240" height="44" rx="22" fill="#F7D072"/>
  <rect x="250" y="168" width="34" height="194" rx="17" transform="rotate(-8 250 168)" fill="#F0AF55"/>
  <rect x="300" y="150" width="34" height="220" rx="17" transform="rotate(4 300 150)" fill="#F3B562"/>
  <rect x="352" y="136" width="34" height="240" rx="17" transform="rotate(-2 352 136)" fill="#F0AF55"/>
  <rect x="408" y="148" width="34" height="220" rx="17" transform="rotate(8 408 148)" fill="#F3B562"/>
  <rect x="464" y="136" width="34" height="236" rx="17" transform="rotate(-4 464 136)" fill="#F0AF55"/>
  <rect x="514" y="156" width="34" height="204" rx="17" transform="rotate(10 514 156)" fill="#F3B562"/>
  <text x="400" y="84" fill="#F6EBDD" font-family="Arial, sans-serif" font-size="36" font-weight="700" text-anchor="middle" letter-spacing="6">SIDES &amp; CRISPY FAVORITES</text>
</svg>